<svg fill="none" xmlns="http://www.w3.org/2000/svg" viewBox="0 0 320 64">
  <g clip-path="url(#a)" fill="#1E3A8A">
    <path d="M84.0738 32.2297v6.6778c6.608 2.4029 9.5976 5.1691 9.5976 6.9433 0 1.9558-3.5624 5.0573-11.5256 7.5999-8.5359 2.7521-19.9497 4.247-32.1458 4.247-12.1961 0-23.6099-1.5088-32.1459-4.247-7.96307-2.5426-11.52552-5.658-11.52552-7.5999 0-1.7882 2.98967-4.5404 9.59762-6.9433v-6.6778C6.39844 35.2752 0 39.8435 0 45.8508c0 11.9167 25.1467 18.1475 50 18.1475s50-6.2308 50-18.1475c0-6.0073-6.3984-10.5616-15.9262-13.6211Z"/>
    <path d="M77.3819 0H61.316v53.2411c5.8676-.4889 11.33-1.3551 16.0659-2.5705V0ZM58.033 53.4786V11.1623H41.967v42.3163c2.6125.1537 5.3088.2236 8.033.2236 2.7242 0 5.4205-.0839 8.033-.2236ZM38.684 22.185H22.618v28.4716c4.736 1.2154 10.1984 2.0816 16.066 2.5706V22.185ZM145 14.3535v6.7677h-8.788v28.5859h-7.374V21.1212H120v-6.7677h25Zm20.96 8.6869c.656 0 1.262 0 1.919.1515v6.9192c-.606-.1515-1.212-.1515-1.717-.1515-4.849 0-8.839 3.4848-9.293 8.5354v11.2121h-7.223V23.4444h7.223v6.5657c1.161-3.9899 4.343-6.9697 9.091-6.9697Zm25.454.404h7.222v26.2627h-7.222v-3.2324c-.151 1.0607-2.727 3.7374-7.273 3.7374-6.01 0-12.979-4.3434-12.979-13.6868 0-9.0405 6.969-13.5354 12.979-13.5354 4.546 0 7.122 2.8283 7.273 3.3838v-2.9293Zm-6.262 20.3536c3.535 0 6.616-2.4243 6.616-7.2727 0-4.697-3.081-7.1213-6.616-7.1213-3.637 0-6.97 2.4748-6.97 7.1213 0 4.7979 3.333 7.2727 6.97 7.2727ZM223.283 14h7.222v35.7071h-7.222v-3.2324c-.152 1.0607-2.727 3.7374-7.273 3.7374-6.01 0-12.98-4.3434-12.98-13.6868 0-9.0405 6.97-13.5354 12.98-13.5354 4.546 0 7.121 2.8283 7.273 3.3838V14Zm-6.263 29.798c3.536 0 6.616-2.4243 6.616-7.2727 0-4.697-3.08-7.1213-6.616-7.1213-3.636 0-6.969 2.4748-6.969 7.1213 0 4.7979 3.333 7.2727 6.969 7.2727Zm31.667-20.8081c5.959 0 14.192 4.495 12.626 16.1111h-19.091c.909 3.2828 3.637 5 7.172 5 3.283 0 4.545-.7576 6.414-1.7677l3.99 3.8889c-2.273 2.3738-5.505 3.9899-10.657 3.9899-6.565 0-14.242-4.4949-14.242-13.5353 0-9.192 7.828-13.6869 13.788-13.6869Zm0 6.1616c-2.626 0-5.404 1.6162-6.364 4.8485h12.627c-.809-3.2323-3.687-4.8485-6.263-4.8485Zm33.535-6.1111c.657 0 1.263 0 1.919.1515v6.9192c-.606-.1515-1.212-.1515-1.717-.1515-4.848 0-8.838 3.4848-9.293 8.5354v11.2121h-7.222V23.4444h7.222v6.5657c1.162-3.9899 4.344-6.9697 9.091-6.9697ZM320 49.7071h-8.687l-7.626-11.3637-7.576 11.3637h-8.687l11.869-17.8788-11.717-17.4748h8.687l7.373 10.9596 7.273-10.9596h8.687L307.98 31.8283 320 49.7071Z"/>
  </g>
  <defs>
    <clipPath id="a">
      <path fill="#fff" d="M0 0h320v63.9983H0z"/>
    </clipPath>
  </defs>
</svg>
